# xmcd
# 
# Track frame offsets:
#     150
#     27279
#     52085
#     71345
#     94777
#     113724
#     139070
#     164242
#     187892
#     216201
#     238926
#     259493
#     286503
# 
# Disc length: 3994
# 
# Revision: 1
# Processed by: cddbd v1.5.2PL0 Copyright (c) Steve Scherf et al.
# Submitted via: fre:ac v1.0.31
# 
DISCID=c20f980d
DTITLE=Mark Knopfler - Down The Road Wherever
DYEAR=2018
DGENRE=Rock/Pop
TTITLE0=Trapper Man
TTITLE1=Back On the Dance Floor
TTITLE2=Nobody's Child
TTITLE3=Just A Boy Away From Homr
TTITLE4=When You Leave
TTITLE5=Good On You Son
TTITLE6=My Bacon Roll
TTITLE7=Nobody Does That
TTITLE8=One song At a Time
TTITLE9=Floating Away
TTITLE10=Slow Learner
TTITLE11=Heavy Up
TTITLE12=Matchstick Man
EXTD=
EXTT0=
EXTT1=
EXTT2=
EXTT3=
EXTT4=
EXTT5=
EXTT6=
EXTT7=
EXTT8=
EXTT9=
EXTT10=
EXTT11=
EXTT12=
PLAYORDER=
